<svg width="111" height="22" viewBox="0 0 111 22" fill="none" xmlns="http://www.w3.org/2000/svg">
<path d="M0.738462 0.830769H6.30769V1.23077L4.55385 1.50769V15.5385H10.2154L11.7538 11.3846H12.2769V16H0.738462V15.6L2.46154 15.3231V1.50769L0.738462 1.23077V0.830769ZM21.2954 15.0154C21.9518 14.5231 22.3621 13.8872 22.5262 13.1077H22.9877C22.8031 14.0513 22.3518 14.8 21.6339 15.3538C20.9159 15.9077 20.0339 16.1846 18.9877 16.1846C17.5518 16.1846 16.3518 15.7128 15.3877 14.7692C14.4442 13.8462 13.9724 12.6359 13.9724 11.1385C13.9724 9.62051 14.4339 8.38974 15.357 7.44615C16.28 6.48205 17.398 6 18.7108 6C20.0442 6 21.0903 6.4 21.8493 7.2C22.6288 7.97949 23.0288 8.9641 23.0493 10.1538H16.0647V12.0308C16.0647 13.159 16.3108 14.0615 16.8031 14.7385C17.3365 15.4359 18.0544 15.7846 18.957 15.7846C19.8595 15.7846 20.639 15.5282 21.2954 15.0154ZM18.8339 6.43077C17.9929 6.43077 17.3365 6.7282 16.8647 7.32308C16.3929 7.89744 16.1365 8.68718 16.0954 9.69231H20.957C20.957 7.51795 20.2493 6.43077 18.8339 6.43077ZM32.7496 16V14.0308C32.0727 15.4667 31.0266 16.1846 29.6112 16.1846C28.2163 16.1846 27.0984 15.7231 26.2573 14.8C25.4368 13.8564 25.0266 12.6154 25.0266 11.0769C25.0266 9.53846 25.4368 8.30769 26.2573 7.38462C27.0984 6.46154 28.2163 6 29.6112 6C31.0266 6 32.0727 6.7282 32.7496 8.18462V1.38461L31.4266 1.23077V0.830769H34.6573V15.4462L35.9804 15.6V16H32.7496ZM27.1189 10.1538V12.0308C27.1189 14.4923 27.9907 15.7231 29.7343 15.7231C30.5753 15.7231 31.283 15.3744 31.8573 14.6769C32.4317 13.9795 32.7291 13.1487 32.7496 12.1846V10.0308C32.7291 9.04615 32.4317 8.20513 31.8573 7.50769C31.283 6.81026 30.5753 6.46154 29.7343 6.46154C27.9907 6.46154 27.1189 7.69231 27.1189 10.1538ZM39.9207 12.8C39.0796 12.8615 38.6591 13.1897 38.6591 13.7846C38.6591 14.0718 38.8232 14.2974 39.1514 14.4615C39.4796 14.6051 39.8899 14.6769 40.3822 14.6769H43.4899C44.495 14.6769 45.254 14.8821 45.7668 15.2923C46.3002 15.6821 46.5668 16.3385 46.5668 17.2615C46.5668 18.4718 46.1463 19.4872 45.3053 20.3077C44.4848 21.1282 43.3053 21.5385 41.7668 21.5385C40.2284 21.5385 39.0694 21.2923 38.2899 20.8C37.5104 20.3282 37.1207 19.6923 37.1207 18.8923C37.1207 18.4205 37.2848 18.0103 37.613 17.6615C37.9412 17.3128 38.3925 17.1385 38.9668 17.1385C39.0694 17.1385 39.3053 17.1692 39.6745 17.2308C39.2848 17.641 39.0899 18.1538 39.0899 18.7692C39.0899 19.4051 39.3053 19.959 39.7361 20.4308C40.1873 20.9231 40.9668 21.1692 42.0745 21.1692C43.1822 21.1692 44.1155 20.8513 44.8745 20.2154C45.654 19.5795 46.0438 18.8615 46.0438 18.0615C46.0438 17.5077 45.9002 17.1077 45.613 16.8615C45.3258 16.6359 44.813 16.5231 44.0745 16.5231H40.3822C38.5976 16.5231 37.7053 15.8974 37.7053 14.6462C37.7053 14.0718 37.8591 13.6103 38.1668 13.2615C38.4745 12.8923 38.895 12.6462 39.4284 12.5231C38.4438 11.8667 37.9514 10.9333 37.9514 9.72308C37.9514 8.51282 38.3104 7.58974 39.0284 6.95385C39.7668 6.31795 40.6694 6 41.7361 6C42.8232 6 43.7155 6.27692 44.413 6.83077C44.9053 6.81026 45.2643 6.70769 45.4899 6.52308C45.7361 6.31795 45.8591 6.09231 45.8591 5.84615C45.8591 5.6 45.7976 5.41538 45.6745 5.29231C45.5514 5.16923 45.4079 5.10769 45.2438 5.10769C45.2438 4.77949 45.3566 4.51282 45.5822 4.30769C45.8079 4.08205 46.0848 3.96923 46.413 3.96923C46.7412 3.96923 47.0181 4.07179 47.2438 4.27692C47.4694 4.48205 47.5822 4.81026 47.5822 5.26154C47.5822 5.71282 47.3566 6.13333 46.9053 6.52308C46.4745 6.89231 45.7668 7.10769 44.7822 7.16923C45.3976 7.80513 45.695 8.64615 45.6745 9.69231C45.6745 10.7179 45.3053 11.559 44.5668 12.2154C43.8489 12.8513 42.9258 13.1692 41.7976 13.1692C41.0796 13.1692 40.454 13.0462 39.9207 12.8ZM43.8899 10.0308V9.10769C43.8899 7.26154 43.1925 6.33846 41.7976 6.33846C40.4232 6.33846 39.7361 7.26154 39.7361 9.10769V10.0308C39.7361 10.9128 39.9002 11.6 40.2284 12.0923C40.5771 12.5846 41.1002 12.8308 41.7976 12.8308C42.495 12.8308 43.0181 12.5846 43.3668 12.0923C43.7155 11.6 43.8899 10.9128 43.8899 10.0308ZM55.6314 15.0154C56.2878 14.5231 56.698 13.8872 56.8621 13.1077H57.3237C57.1391 14.0513 56.6878 14.8 55.9698 15.3538C55.2519 15.9077 54.3698 16.1846 53.3237 16.1846C51.8878 16.1846 50.6878 15.7128 49.7237 14.7692C48.7801 13.8462 48.3083 12.6359 48.3083 11.1385C48.3083 9.62051 48.7698 8.38974 49.6929 7.44615C50.616 6.48205 51.7339 6 53.0468 6C54.3801 6 55.4262 6.4 56.1852 7.2C56.9647 7.97949 57.3647 8.9641 57.3852 10.1538H50.4006V12.0308C50.4006 13.159 50.6468 14.0615 51.1391 14.7385C51.6724 15.4359 52.3903 15.7846 53.2929 15.7846C54.1955 15.7846 54.975 15.5282 55.6314 15.0154ZM53.1698 6.43077C52.3288 6.43077 51.6724 6.7282 51.2006 7.32308C50.7288 7.89744 50.4724 8.68718 50.4314 9.69231H55.2929C55.2929 7.51795 54.5852 6.43077 53.1698 6.43077ZM59.0548 16V15.6L60.3779 15.4462V6.73846L59.0548 6.55385V6.18461H62.2856V7.63077C63.0856 6.54359 63.9881 6 64.9933 6C65.4651 6 65.8856 6.12308 66.2548 6.36923C66.624 6.61538 66.8087 6.94359 66.8087 7.35385C66.8087 7.74359 66.6958 8.05128 66.4702 8.27692C66.2446 8.48205 65.9369 8.58462 65.5471 8.58462C65.1779 8.58462 64.8804 8.43077 64.6548 8.12308C64.7984 7.93846 64.8599 7.74359 64.8394 7.53846C64.8394 7.33333 64.7676 7.15897 64.624 7.01538C64.4804 6.87179 64.2856 6.8 64.0394 6.8C63.5471 6.8 62.9625 7.31282 62.2856 8.33846V15.4462L63.7933 15.6V16H59.0548ZM75.8825 16V14.0308C75.2055 15.4667 74.1594 16.1846 72.744 16.1846C71.3491 16.1846 70.2312 15.7231 69.3901 14.8C68.5696 13.8564 68.1594 12.6154 68.1594 11.0769C68.1594 9.53846 68.5696 8.30769 69.3901 7.38462C70.2312 6.46154 71.3491 6 72.744 6C74.1594 6 75.2055 6.7282 75.8825 8.18462V1.38461L74.5594 1.23077V0.830769H77.7901V15.4462L79.1132 15.6V16H75.8825ZM70.2517 10.1538V12.0308C70.2517 14.4923 71.1235 15.7231 72.8671 15.7231C73.7081 15.7231 74.4158 15.3744 74.9901 14.6769C75.5645 13.9795 75.8619 13.1487 75.8825 12.1846V10.0308C75.8619 9.04615 75.5645 8.20513 74.9901 7.50769C74.4158 6.81026 73.7081 6.46154 72.8671 6.46154C71.1235 6.46154 70.2517 7.69231 70.2517 10.1538ZM86.8996 14.1231C86.5714 14.7795 86.0996 15.2923 85.4843 15.6615C84.8689 16.0103 84.1612 16.1846 83.3612 16.1846C82.5817 16.1846 81.9355 15.9795 81.4227 15.5692C80.9304 15.1385 80.6843 14.5538 80.6843 13.8154C80.6843 13.0769 80.8381 12.4923 81.1458 12.0615C82.0073 10.9333 83.6996 10.3692 86.2227 10.3692H86.8996V8.52308C86.8996 7.1282 86.2637 6.43077 84.9919 6.43077C84.4176 6.43077 83.9458 6.5641 83.5766 6.83077C83.2278 7.09744 83.0535 7.40513 83.0535 7.75385C83.0535 8.10256 83.2176 8.32821 83.5458 8.43077C83.5458 8.75897 83.4227 9.04615 83.1766 9.29231C82.9509 9.51795 82.674 9.63077 82.3458 9.63077C82.0381 9.63077 81.7612 9.51795 81.515 9.29231C81.2894 9.04615 81.1766 8.74872 81.1766 8.4C81.1766 7.74359 81.5458 7.17949 82.2843 6.70769C83.0227 6.2359 83.9253 6 84.9919 6C87.556 6 88.8278 6.97436 88.8073 8.92308V14.7385C88.8073 15.3128 89.0432 15.6 89.515 15.6C89.9868 15.6 90.2227 15.3231 90.2227 14.7692H90.6227C90.6227 15.2 90.4791 15.5487 90.1919 15.8154C89.9048 16.0615 89.4843 16.1846 88.9304 16.1846C88.3766 16.1846 87.9048 16.0205 87.515 15.6923C87.1253 15.3436 86.9202 14.8205 86.8996 14.1231ZM86.8996 12.7692V10.8308H86.2227C85.2381 10.8308 84.4073 11.0667 83.7304 11.5385C83.074 12.0103 82.7458 12.7179 82.7458 13.6615C82.7458 14.1744 82.8791 14.5744 83.1458 14.8615C83.433 15.1487 83.8535 15.2923 84.4073 15.2923C84.9612 15.2923 85.4945 15.0667 86.0073 14.6154C86.5202 14.1641 86.8176 13.5487 86.8996 12.7692ZM91.5157 16V15.6L92.8388 15.4462V6.73846L91.5157 6.55385V6.18461H94.7465V7.63077C95.5465 6.54359 96.4491 6 97.4542 6C97.926 6 98.3465 6.12308 98.7157 6.36923C99.085 6.61538 99.2696 6.94359 99.2696 7.35385C99.2696 7.74359 99.1568 8.05128 98.9311 8.27692C98.7055 8.48205 98.3978 8.58462 98.0081 8.58462C97.6388 8.58462 97.3414 8.43077 97.1157 8.12308C97.2593 7.93846 97.3209 7.74359 97.3004 7.53846C97.3004 7.33333 97.2286 7.15897 97.085 7.01538C96.9414 6.87179 96.7465 6.8 96.5004 6.8C96.0081 6.8 95.4234 7.31282 94.7465 8.33846V15.4462L96.2542 15.6V16H91.5157ZM110.22 6.21538V6.55385L108.928 7.04615L104.651 19.4154C104.405 20.1538 104.087 20.6872 103.697 21.0154C103.328 21.3641 102.805 21.5385 102.128 21.5385C101.451 21.5385 100.907 21.3744 100.497 21.0462C100.107 20.7179 99.9126 20.3179 99.9126 19.8462C99.9126 19.3744 100.025 19.0256 100.251 18.8C100.477 18.5744 100.795 18.4615 101.205 18.4615C101.636 18.4615 101.954 18.6667 102.159 19.0769C101.974 19.3231 101.882 19.5795 101.882 19.8462C101.882 20.1333 101.964 20.359 102.128 20.5231C102.292 20.6872 102.497 20.7692 102.743 20.7692C103.338 20.7692 103.8 20.3179 104.128 19.4154L105.266 16.1231L100.866 6.76923L99.6049 6.55385V6.21538H104.313V6.55385L102.99 6.8L106.159 13.5692L108.436 7.04615L106.774 6.55385V6.21538H110.22Z" fill="#119682"/>
</svg>
